<svg id="Capa_1" data-name="Capa 1" xmlns="http://www.w3.org/2000/svg" viewBox="0 0 1000 1000"><defs><style>.cls-1{fill:#191b27;}</style></defs><path class="cls-1" d="M109.22,895.06V869h16c4.55,0,8.34,2.1,8.34,7s-3.29,7.69-7.51,7.69l-13.28,0v11.33ZM125,881.43c2.79,0,5.1-1.67,5.1-4.76,0-3.32-2.23-4.75-5.1-4.75H112.79v9.51Z"/><path class="cls-1" d="M140.27,895.06V869H156.1c4.7,0,8.54,2,8.54,7.09,0,4.91-3.37,7.57-7.33,7.65h-2.78l10,11.37h-4.23l-9.72-11.37h-6.73v11.37Zm15.79-13.63c2.78,0,5.09-1.67,5.09-4.76,0-3.32-2.23-4.75-5.09-4.75H143.84v9.51Z"/><path class="cls-1" d="M172.78,895.06V869h18.29v2.93H176.34v9.39h13.47v2.18H176.34v9h14.73v2.62Z"/><path class="cls-1" d="M198.83,869h11.35c8.47,0,13.4,4.28,13.4,12.36,0,7.8-5.29,13.67-14.1,13.67H198.83Zm3.95,23.41h5.53c7.2,0,11.47-4.08,11.47-11s-3.92-9.83-11-9.83h-6Z"/><path class="cls-1" d="M235.33,895.06h-3.92V869.19h3.92Z"/><path class="cls-1" d="M258.81,867.88c8.54,0,15.59,5.74,15.59,13.79s-6.93,13.78-15.67,13.78S243,889.63,243,881.82,249.92,867.88,258.81,867.88ZM247,881.9c0,6.58,5.33,10.7,11.67,10.7s11.79-4.08,11.79-10.93c0-6.7-5.13-10.86-11.47-10.86C252.23,870.77,247,875.37,247,881.9Z"/><path class="cls-1" d="M301,869H319.6v3.17H304.88v9.15h13.43v2.14H304.88v11.61H301Z"/><path class="cls-1" d="M326,895.06V869h18.29v2.93H329.59v9.39h13.47v2.18H329.59v9h14.72v2.62Z"/><path class="cls-1" d="M352.07,895.06V869H367.9c4.7,0,8.54,2,8.54,7.09,0,4.91-3.37,7.57-7.33,7.65h-2.78l10,11.37h-4.23l-9.72-11.37h-6.74v11.37Zm15.79-13.63c2.78,0,5.09-1.67,5.09-4.76,0-3.32-2.24-4.75-5.09-4.75H355.63v9.51Z"/><path class="cls-1" d="M388.55,895.06h-3.92V869.19h3.92Z"/><path class="cls-1" d="M405.7,869.3h5.41L422,895.06h-4.42L415,889l-13.24,0-2.58,6.14h-4.39Zm8.54,17.32-5.84-14.15-5.95,14.15Z"/><path class="cls-1" d="M446.65,892.05v3H428.31V869.19h3.61v22.86Z"/><path class="cls-1" d="M472.89,869h11.36c8.46,0,13.4,4.28,13.4,12.36,0,7.8-5.29,13.67-14.1,13.67H472.89Zm4,23.41h5.52c7.21,0,11.48-4.08,11.48-11s-3.92-9.83-11-9.83h-6Z"/><path class="cls-1" d="M505.5,895.06V869h18.29v2.93H509.07v9.39h13.47v2.18H509.07v9h14.72v2.62Z"/><path class="cls-1" d="M551.06,869h15.35c4.78,0,9,2.18,9,6.81,0,2.85-1.33,5.47-4,6.38a5.76,5.76,0,0,1,4.16,5.78c0,5-4.63,7.06-9.52,7.06h-15Zm15.39,12.08c3.17,0,5.29-1.58,5.29-4.75,0-3-2.31-4.4-5.52-4.4H555v9.15ZM555,883.29v9.15h11.52c4.19,0,5.25-2.81,5.25-4.71,0-3-2.12-4.44-5.29-4.44Z"/><path class="cls-1" d="M587.33,869.19v16.68c0,4.27,4,7.17,8.22,7.17s7.92-3.17,7.92-7.17V869.19h3.87v16.16c0,4.95-4.35,10.06-11.94,10.06s-11.95-5.15-11.95-10.06V869.19Z"/><path class="cls-1" d="M616.7,895.06V869H635v2.93H620.27v9.39h13.47v2.18H620.27v9H635v2.62Z"/><path class="cls-1" d="M646.57,869.07l13.63,20.24V869.07H664v26h-3.41l-14-20.49v20.49h-3.84l-.08-26Z"/><path class="cls-1" d="M687.62,867.88c8.54,0,15.59,5.74,15.59,13.79s-6.93,13.78-15.67,13.78-15.75-5.82-15.75-13.63S678.72,867.88,687.62,867.88Zm-11.83,14c0,6.58,5.33,10.7,11.67,10.7s11.79-4.08,11.79-10.93c0-6.7-5.13-10.86-11.48-10.86C681,870.77,675.79,875.37,675.79,881.9Z"/><path class="cls-1" d="M713.45,887c0,4.67,4.5,5.82,9.87,5.82,4.9,0,9.52-1.39,9.52-4.87,0-7-23.11-.84-23.11-11.77,0-5.19,5.95-7.53,13.43-7.53s13.52,1.94,13.44,8.76h-4c0-4.84-4.15-6-9.44-6-4.54,0-9.24,1.19-9.24,5,0,7.72,23,2,23,11.6,0,5.39-7.13,7.65-13.59,7.65-10.5,0-14.18-4-14.18-8.63Z"/><path class="cls-1" d="M771.07,869.3h5.41l10.93,25.76H783l-2.63-6.1-13.23,0-2.59,6.14h-4.39Zm8.54,17.32-5.83-14.15-6,14.15Z"/><path class="cls-1" d="M797.6,895.06h-3.91V869.19h3.91Z"/><path class="cls-1" d="M807.26,895.06V869h15.82c4.7,0,8.54,2,8.54,7.09,0,4.91-3.37,7.57-7.32,7.65h-2.78l10,11.37h-4.23l-9.71-11.37h-6.74v11.37ZM823,881.43c2.78,0,5.1-1.67,5.1-4.76,0-3.32-2.24-4.75-5.1-4.75H810.82v9.51Z"/><path class="cls-1" d="M839.76,895.06V869h18.29v2.93H843.33v9.39H856.8v2.18H843.33v9h14.72v2.62Z"/><path class="cls-1" d="M868,887c0,4.67,4.51,5.82,9.87,5.82,4.9,0,9.52-1.39,9.52-4.87,0-7-23.11-.84-23.11-11.77,0-5.19,6-7.53,13.44-7.53s13.51,1.94,13.43,8.76h-4c0-4.84-4.15-6-9.44-6-4.55,0-9.25,1.19-9.25,5,0,7.72,23,2,23,11.6,0,5.39-7.13,7.65-13.6,7.65-10.49,0-14.18-4-14.18-8.63Z"/><path class="cls-1" d="M500.33,313.61c-71.68,0-130,58.32-130,130V618.69a6.25,6.25,0,0,0,12.5,0V443.61a117.5,117.5,0,0,1,235,0V618.69a6.25,6.25,0,0,0,12.5,0V443.61C630.33,371.93,572,313.61,500.33,313.61Z"/><path class="cls-1" d="M500.33,354.24a88.77,88.77,0,0,0-88.67,88.67v208a6.25,6.25,0,1,0,12.49,0V569.31H576.51v81.57a6.25,6.25,0,0,0,12.5,0v-208A88.78,88.78,0,0,0,500.33,354.24Zm6.25,161.26V367a75.68,75.68,0,0,1,33.83,11.16V515.5Zm-12.5,0H460.25V378.17A75.72,75.72,0,0,1,494.08,367ZM447.75,387.87V515.5h-23.6V442.91A76,76,0,0,1,447.75,387.87Zm-23.6,169V528H576.51v28.83ZM576.51,515.5h-23.6V387.87a75.91,75.91,0,0,1,23.6,55Z"/><path class="cls-1" d="M770.28,431.73h-95.9a1.11,1.11,0,0,1-1.11-1.08c-3.85-92.06-79.95-165.77-172.94-165.77S331.24,338.59,327.39,430.65a1.11,1.11,0,0,1-1.11,1.08h-95.9a6.49,6.49,0,0,0-6.5,5.2,6.26,6.26,0,0,0,6.16,7.3H333.49a6.22,6.22,0,0,0,6.25-6.18c-.05-88.58,72-160.67,160.59-160.67S661,349.47,660.93,438.05a6.21,6.21,0,0,0,6.24,6.18H770.62a6.26,6.26,0,0,0,6.16-7.3A6.49,6.49,0,0,0,770.28,431.73Z"/><path class="cls-1" d="M230,412.72h75.07a6.28,6.28,0,0,0,6.18-5.34,191.51,191.51,0,0,1,378.08,0,6.28,6.28,0,0,0,6.18,5.34h74.73a6.48,6.48,0,0,0,6.5-5.19,6.25,6.25,0,0,0-6.16-7.3H701.73a1.1,1.1,0,0,1-1.09-.91,204,204,0,0,0-400.62,0,1.1,1.1,0,0,1-1.09.91H230.38a6.48,6.48,0,0,0-6.5,5.2A6.25,6.25,0,0,0,230,412.72Z"/><path class="cls-1" d="M482.71,196.74H518a6.25,6.25,0,1,0,0-12.49H506.61V110.19a6.25,6.25,0,1,0-12.5,0v74.06h-11.4a6.25,6.25,0,1,0,0,12.49Z"/><path class="cls-1" d="M451.14,232.57a6.26,6.26,0,0,0,8.42-2.7l5.84-11.37a6.35,6.35,0,0,1,5.67-3.45H529.6a6.32,6.32,0,0,1,5.65,3.45l5.86,11.37a6.25,6.25,0,1,0,11.11-5.72l-5.85-11.37a18.8,18.8,0,0,0-16.77-10.23H471.07a18.8,18.8,0,0,0-16.78,10.23l-5.85,11.37A6.25,6.25,0,0,0,451.14,232.57Z"/><path class="cls-1" d="M178.2,807.85v11.2h-69V722.81h13.56v85Z"/><path class="cls-1" d="M232.38,722.81h20.34l41.12,95.8H277.18l-9.87-22.7-49.82-.14-9.72,22.84H191.26Zm32.13,64.41-22-52.62-22.4,52.62Z"/><path class="cls-1" d="M335.6,819.94V722.81h59.54c17.69,0,32.13,7.52,32.13,26.38,0,18.28-12.67,28.15-27.56,28.45H389.25l37.58,42.3H410.91l-36.55-42.3H349v42.3ZM395,769.24c10.47,0,19.17-6.19,19.17-17.69,0-12.38-8.41-17.68-19.17-17.68H349v35.37Z"/><path class="cls-1" d="M732.86,722.81H753.2l41.12,95.8H777.67l-9.88-22.7L718,795.77l-9.72,22.84H691.74ZM765,787.22,743,734.6l-22.4,52.62Z"/><path class="cls-1" d="M891.45,807.85v11.2h-69V722.81H836v85Z"/><path class="cls-1" d="M470,722.81v62.05c0,15.92,15.18,26.68,30.95,26.68,15.62,0,29.77-11.79,29.77-26.68V722.81h14.59v60.13c0,18.43-16.36,37.44-44.95,37.44-29,0-44.95-19.16-44.95-37.44V722.81Z"/><path class="cls-1" d="M576.52,819.94V722.81h59.54c17.69,0,32.13,7.52,32.13,26.38,0,18.28-12.68,28.15-27.56,28.45H630.17l37.58,42.3H651.83l-36.55-42.3H589.93v42.3Zm59.39-50.7c10.47,0,19.16-6.19,19.16-17.69,0-12.38-8.4-17.68-19.16-17.68h-46v35.37Z"/></svg>